<?xml version="1.0" encoding="UTF-8" standalone="no"?>
<!-- Created with Inkscape (http://www.inkscape.org/) -->

<svg
   xmlns:dc="http://purl.org/dc/elements/1.1/"
   xmlns:cc="http://creativecommons.org/ns#"
   xmlns:rdf="http://www.w3.org/1999/02/22-rdf-syntax-ns#"
   xmlns:svg="http://www.w3.org/2000/svg"
   xmlns="http://www.w3.org/2000/svg"
   xmlns:sodipodi="http://sodipodi.sourceforge.net/DTD/sodipodi-0.dtd"
   xmlns:inkscape="http://www.inkscape.org/namespaces/inkscape"
   version="1.1"
   id="svg84415"
   xml:space="preserve"
   width="793.70135"
   height="1122.52"
   viewBox="0 0 793.70135 1122.52"
   sodipodi:docname="low-poly-texture-6-publicdomainvectors.org.svg"
   inkscape:version="0.92.4 (5da689c313, 2019-01-14)"><metadata
     id="metadata84421"><rdf:RDF><cc:Work
         rdf:about=""><dc:format>image/svg+xml</dc:format><dc:type
           rdf:resource="http://purl.org/dc/dcmitype/StillImage" /><dc:title></dc:title></cc:Work></rdf:RDF></metadata><defs
     id="defs84419"><clipPath
       clipPathUnits="userSpaceOnUse"
       id="clipPath84431"><path
         d="M 0,841.89 H 595.276 V 0 H 0 Z"
         id="path84429"
         inkscape:connector-curvature="0" /></clipPath></defs><sodipodi:namedview
     pagecolor="#ffffff"
     bordercolor="#666666"
     borderopacity="1"
     objecttolerance="10"
     gridtolerance="10"
     guidetolerance="10"
     inkscape:pageopacity="0"
     inkscape:pageshadow="2"
     inkscape:window-width="797"
     inkscape:window-height="480"
     id="namedview84417"
     showgrid="false"
     inkscape:zoom="0.21024124"
     inkscape:cx="396.85068"
     inkscape:cy="561.26001"
     inkscape:window-x="0"
     inkscape:window-y="0"
     inkscape:window-maximized="0"
     inkscape:current-layer="g84423" /><g
     id="g84423"
     inkscape:groupmode="layer"
     inkscape:label="low-poly-texture-6-publicdomainvectors.org"
     transform="matrix(1.3333333,0,0,-1.3333333,0,1122.52)"><g
       id="g84425"><g
         id="g84427"
         clip-path="url(#clipPath84431)"><path
           d="m 412.072,-1.872 c -28.923,10.957 -56.998,23.278 -84.074,36.956 1.691,-12.405 3.597,-24.727 5.716,-36.956 z"
           style="fill:#db1300;fill-opacity:1;fill-rule:nonzero;stroke:none"
           id="path84433"
           inkscape:connector-curvature="0" /><path
           d="m 412.072,-1.872 c -28.923,10.957 -56.998,23.278 -84.074,36.956 1.691,-12.405 3.597,-24.727 5.716,-36.956 z"
           style="fill:none;stroke:#db1300;stroke-width:0.89600003;stroke-linecap:butt;stroke-linejoin:miter;stroke-miterlimit:4;stroke-dasharray:none;stroke-opacity:1"
           id="path84435"
           inkscape:connector-curvature="0" /><path
           d="m 333.714,-1.872 c -2.119,12.229 -4.025,24.551 -5.716,36.956 C 303.212,22.318 278.094,9.992 252.659,-1.872 Z"
           style="fill:#e42300;fill-opacity:1;fill-rule:nonzero;stroke:none"
           id="path84437"
           inkscape:connector-curvature="0" /><path
           d="m 333.714,-1.872 c -2.119,12.229 -4.025,24.551 -5.716,36.956 C 303.212,22.318 278.094,9.992 252.659,-1.872 Z"
           style="fill:none;stroke:#e42300;stroke-width:0.89600003;stroke-linecap:butt;stroke-linejoin:miter;stroke-miterlimit:4;stroke-dasharray:none;stroke-opacity:1"
           id="path84439"
           inkscape:connector-curvature="0" /><path
           d="m 252.659,-1.872 c 25.435,11.864 50.553,24.19 75.339,36.956 -38.266,17.748 -74.85,38.111 -109.334,60.914 -17.523,-32.799 -34.898,-65.422 -52.123,-97.87 z"
           style="fill:#f03600;fill-opacity:1;fill-rule:nonzero;stroke:none"
           id="path84441"
           inkscape:connector-curvature="0" /><path
           d="m 252.659,-1.872 c 25.435,11.864 50.553,24.19 75.339,36.956 -38.266,17.748 -74.85,38.111 -109.334,60.914 -17.523,-32.799 -34.898,-65.422 -52.123,-97.87 z"
           style="fill:none;stroke:#f03600;stroke-width:0.89600003;stroke-linecap:butt;stroke-linejoin:miter;stroke-miterlimit:4;stroke-dasharray:none;stroke-opacity:1"
           id="path84443"
           inkscape:connector-curvature="0" /><path
           d="m 166.541,-1.872 c 17.225,32.448 34.6,65.071 52.123,97.87 -74.678,14.293 -147.299,36.23 -215.879,65.828 V 81.945 C 27.244,52.222 53.911,24.179 82.549,-1.872 Z"
           style="fill:#f64e00;fill-opacity:1;fill-rule:nonzero;stroke:none"
           id="path84445"
           inkscape:connector-curvature="0" /><path
           d="m 166.541,-1.872 c 17.225,32.448 34.6,65.071 52.123,97.87 -74.678,14.293 -147.299,36.23 -215.879,65.828 V 81.945 C 27.244,52.222 53.911,24.179 82.549,-1.872 Z"
           style="fill:none;stroke:#f64e00;stroke-width:0.89600003;stroke-linecap:butt;stroke-linejoin:miter;stroke-miterlimit:4;stroke-dasharray:none;stroke-opacity:1"
           id="path84447"
           inkscape:connector-curvature="0" /><path
           d="M 82.549,-1.872 C 53.911,24.179 27.244,52.222 2.785,81.945 V -1.872 Z"
           style="fill:#f04f00;fill-opacity:1;fill-rule:nonzero;stroke:none"
           id="path84449"
           inkscape:connector-curvature="0" /><path
           d="M 82.549,-1.872 C 53.911,24.179 27.244,52.222 2.785,81.945 V -1.872 Z"
           style="fill:none;stroke:#f04f00;stroke-width:0.89600003;stroke-linecap:butt;stroke-linejoin:miter;stroke-miterlimit:4;stroke-dasharray:none;stroke-opacity:1"
           id="path84451"
           inkscape:connector-curvature="0" /><path
           d="m 2.785,832.247 c 30.223,-11.044 61.292,-19.899 92.856,-26.539 10.972,12.001 22.019,23.9 33.138,35.697 H 2.785 Z"
           style="fill:#c0ebe4;fill-opacity:1;fill-rule:nonzero;stroke:none"
           id="path84453"
           inkscape:connector-curvature="0" /><path
           d="m 2.785,832.247 c 30.223,-11.044 61.292,-19.899 92.856,-26.539 10.972,12.001 22.019,23.9 33.138,35.697 H 2.785 Z"
           style="fill:none;stroke:#c0ebe4;stroke-width:0.89600003;stroke-linecap:butt;stroke-linejoin:miter;stroke-miterlimit:4;stroke-dasharray:none;stroke-opacity:1"
           id="path84455"
           inkscape:connector-curvature="0" /><path
           d="M 2.785,161.826 C 71.365,132.228 143.986,110.291 218.664,95.998 175.005,158.584 141.344,228.328 118.503,301.615 80.672,279.94 42.077,259.367 2.785,239.938 Z"
           style="fill:#fd7700;fill-opacity:1;fill-rule:nonzero;stroke:none"
           id="path84457"
           inkscape:connector-curvature="0" /><path
           d="M 2.785,161.826 C 71.365,132.228 143.986,110.291 218.664,95.998 175.005,158.584 141.344,228.328 118.503,301.615 80.672,279.94 42.077,259.367 2.785,239.938 Z"
           style="fill:none;stroke:#fd7700;stroke-width:0.89600003;stroke-linecap:butt;stroke-linejoin:miter;stroke-miterlimit:4;stroke-dasharray:none;stroke-opacity:1"
           id="path84459"
           inkscape:connector-curvature="0" /><path
           d="M 2.785,239.938 C 42.077,259.367 80.672,279.94 118.503,301.615 79.272,309.768 40.58,320.3 2.785,333.215 Z"
           style="fill:#fe9708;fill-opacity:1;fill-rule:nonzero;stroke:none"
           id="path84461"
           inkscape:connector-curvature="0" /><path
           d="M 2.785,239.938 C 42.077,259.367 80.672,279.94 118.503,301.615 79.272,309.768 40.58,320.3 2.785,333.215 Z"
           style="fill:none;stroke:#fe9708;stroke-width:0.89600003;stroke-linecap:butt;stroke-linejoin:miter;stroke-miterlimit:4;stroke-dasharray:none;stroke-opacity:1"
           id="path84463"
           inkscape:connector-curvature="0" /><path
           d="m 2.785,654.457 c 28.639,52.142 59.675,102.661 92.856,151.251 -31.564,6.64 -62.633,15.495 -92.856,26.539 z"
           style="fill:#dff5dd;fill-opacity:1;fill-rule:nonzero;stroke:none"
           id="path84465"
           inkscape:connector-curvature="0" /><path
           d="m 2.785,654.457 c 28.639,52.142 59.675,102.661 92.856,151.251 -31.564,6.64 -62.633,15.495 -92.856,26.539 z"
           style="fill:none;stroke:#dff5dd;stroke-width:0.89600003;stroke-linecap:butt;stroke-linejoin:miter;stroke-miterlimit:4;stroke-dasharray:none;stroke-opacity:1"
           id="path84467"
           inkscape:connector-curvature="0" /><path
           d="m 2.785,645.318 c 44.223,31.757 88.052,64.11 131.491,97.046 -14.217,20.402 -27.122,41.576 -38.635,63.344 C 62.46,757.118 31.424,706.599 2.785,654.457 Z"
           style="fill:#e1f3c2;fill-opacity:1;fill-rule:nonzero;stroke:none"
           id="path84469"
           inkscape:connector-curvature="0" /><path
           d="m 2.785,645.318 c 44.223,31.757 88.052,64.11 131.491,97.046 -14.217,20.402 -27.122,41.576 -38.635,63.344 C 62.46,757.118 31.424,706.599 2.785,654.457 Z"
           style="fill:none;stroke:#e1f3c2;stroke-width:0.89600003;stroke-linecap:butt;stroke-linejoin:miter;stroke-miterlimit:4;stroke-dasharray:none;stroke-opacity:1"
           id="path84471"
           inkscape:connector-curvature="0" /><path
           d="m 128.779,841.405 c -11.119,-11.797 -22.166,-23.696 -33.138,-35.697 11.513,-21.768 24.418,-42.942 38.635,-63.344 3.905,33.577 9.734,66.676 17.336,99.041 z"
           style="fill:#c4eac9;fill-opacity:1;fill-rule:nonzero;stroke:none"
           id="path84473"
           inkscape:connector-curvature="0" /><path
           d="m 128.779,841.405 c -11.119,-11.797 -22.166,-23.696 -33.138,-35.697 11.513,-21.768 24.418,-42.942 38.635,-63.344 3.905,33.577 9.734,66.676 17.336,99.041 z"
           style="fill:none;stroke:#c4eac9;stroke-width:0.89600003;stroke-linecap:butt;stroke-linejoin:miter;stroke-miterlimit:4;stroke-dasharray:none;stroke-opacity:1"
           id="path84475"
           inkscape:connector-curvature="0" /><path
           d="m 151.612,841.405 c -7.602,-32.365 -13.431,-65.464 -17.336,-99.041 37.967,22.757 75.469,46.447 112.48,71.042 -15.332,8.665 -30.205,18.012 -44.551,27.999 z"
           style="fill:#c1e2be;fill-opacity:1;fill-rule:nonzero;stroke:none"
           id="path84477"
           inkscape:connector-curvature="0" /><path
           d="m 151.612,841.405 c -7.602,-32.365 -13.431,-65.464 -17.336,-99.041 37.967,22.757 75.469,46.447 112.48,71.042 -15.332,8.665 -30.205,18.012 -44.551,27.999 z"
           style="fill:none;stroke:#c1e2be;stroke-width:0.89600003;stroke-linecap:butt;stroke-linejoin:miter;stroke-miterlimit:4;stroke-dasharray:none;stroke-opacity:1"
           id="path84479"
           inkscape:connector-curvature="0" /><path
           d="m 218.664,95.998 c 32.129,53.664 64.315,107.908 96.6,162.721 -67.376,7.808 -133.474,21.986 -196.761,42.896 22.841,-73.287 56.502,-143.031 100.161,-205.617"
           style="fill:#fd7400;fill-opacity:1;fill-rule:nonzero;stroke:none"
           id="path84481"
           inkscape:connector-curvature="0" /><path
           d="m 218.664,95.998 c 32.129,53.664 64.315,107.908 96.6,162.721 -67.376,7.808 -133.474,21.986 -196.761,42.896 22.841,-73.287 56.502,-143.031 100.161,-205.617 z"
           style="fill:none;stroke:#fd7400;stroke-width:0.89600003;stroke-linecap:butt;stroke-linejoin:miter;stroke-miterlimit:4;stroke-dasharray:none;stroke-opacity:1"
           id="path84483"
           inkscape:connector-curvature="0" /><path
           d="m 2.785,442.002 c 35,9.721 69.599,20.699 103.712,32.877 -41.101,44.947 -75.96,95.09 -103.712,148.462 z"
           style="fill:#ffe05e;fill-opacity:1;fill-rule:nonzero;stroke:none"
           id="path84485"
           inkscape:connector-curvature="0" /><path
           d="m 2.785,442.002 c 35,9.721 69.599,20.699 103.712,32.877 -41.101,44.947 -75.96,95.09 -103.712,148.462 z"
           style="fill:none;stroke:#ffe05e;stroke-width:0.89600003;stroke-linecap:butt;stroke-linejoin:miter;stroke-miterlimit:4;stroke-dasharray:none;stroke-opacity:1"
           id="path84487"
           inkscape:connector-curvature="0" /><path
           d="M 2.785,333.215 C 40.58,320.3 79.272,309.768 118.503,301.615 109.062,358.434 105.178,416.576 106.497,474.879 72.384,462.701 37.785,451.723 2.785,442.002 Z"
           style="fill:#fec030;fill-opacity:1;fill-rule:nonzero;stroke:none"
           id="path84489"
           inkscape:connector-curvature="0" /><path
           d="M 2.785,333.215 C 40.58,320.3 79.272,309.768 118.503,301.615 109.062,358.434 105.178,416.576 106.497,474.879 72.384,462.701 37.785,451.723 2.785,442.002 Z"
           style="fill:none;stroke:#fec030;stroke-width:0.89600003;stroke-linecap:butt;stroke-linejoin:miter;stroke-miterlimit:4;stroke-dasharray:none;stroke-opacity:1"
           id="path84491"
           inkscape:connector-curvature="0" /><path
           d="m 2.785,623.341 c 27.752,-53.372 62.611,-103.515 103.712,-148.462 -3.384,89.988 6.509,180.486 27.779,267.485 C 90.837,709.428 47.008,677.075 2.785,645.318 Z"
           style="fill:#f6efa1;fill-opacity:1;fill-rule:nonzero;stroke:none"
           id="path84493"
           inkscape:connector-curvature="0" /><path
           d="m 2.785,623.341 c 27.752,-53.372 62.611,-103.515 103.712,-148.462 -3.384,89.988 6.509,180.486 27.779,267.485 C 90.837,709.428 47.008,677.075 2.785,645.318 Z"
           style="fill:none;stroke:#f6efa1;stroke-width:0.89600003;stroke-linecap:butt;stroke-linejoin:miter;stroke-miterlimit:4;stroke-dasharray:none;stroke-opacity:1"
           id="path84495"
           inkscape:connector-curvature="0" /><path
           d="m 202.205,841.405 c 14.346,-9.987 29.219,-19.334 44.551,-27.999 9.983,9.327 19.965,18.66 29.945,27.999 z"
           style="fill:#b0cfbb;fill-opacity:1;fill-rule:nonzero;stroke:none"
           id="path84497"
           inkscape:connector-curvature="0" /><path
           d="m 202.205,841.405 c 14.346,-9.987 29.219,-19.334 44.551,-27.999 9.983,9.327 19.965,18.66 29.945,27.999 z"
           style="fill:none;stroke:#b0cfbb;stroke-width:0.89600003;stroke-linecap:butt;stroke-linejoin:miter;stroke-miterlimit:4;stroke-dasharray:none;stroke-opacity:1"
           id="path84499"
           inkscape:connector-curvature="0" /><path
           d="M 327.998,35.084 C 368.251,97.396 407.713,160.826 446.246,225.449 374.061,177.842 297.981,134.535 218.664,95.998 253.148,73.195 289.732,52.832 327.998,35.084"
           style="fill:#f64d00;fill-opacity:1;fill-rule:nonzero;stroke:none"
           id="path84501"
           inkscape:connector-curvature="0" /><path
           d="M 327.998,35.084 C 368.251,97.396 407.713,160.826 446.246,225.449 374.061,177.842 297.981,134.535 218.664,95.998 253.148,73.195 289.732,52.832 327.998,35.084 Z"
           style="fill:none;stroke:#f64d00;stroke-width:0.89600003;stroke-linecap:butt;stroke-linejoin:miter;stroke-miterlimit:4;stroke-dasharray:none;stroke-opacity:1"
           id="path84503"
           inkscape:connector-curvature="0" /><path
           d="m 446.246,225.449 c -44.859,8.059 -88.686,19.139 -130.982,33.27 -32.285,-54.813 -64.471,-109.057 -96.6,-162.721 79.317,38.537 155.397,81.844 227.582,129.451"
           style="fill:#fa6200;fill-opacity:1;fill-rule:nonzero;stroke:none"
           id="path84505"
           inkscape:connector-curvature="0" /><path
           d="m 446.246,225.449 c -44.859,8.059 -88.686,19.139 -130.982,33.27 -32.285,-54.813 -64.471,-109.057 -96.6,-162.721 79.317,38.537 155.397,81.844 227.582,129.451 z"
           style="fill:none;stroke:#fa6200;stroke-width:0.89600003;stroke-linecap:butt;stroke-linejoin:miter;stroke-miterlimit:4;stroke-dasharray:none;stroke-opacity:1"
           id="path84507"
           inkscape:connector-curvature="0" /><path
           d="M 599.443,-1.872 V 82.627 C 510.217,59.271 419.34,43.038 327.998,35.084 355.074,21.406 383.149,9.085 412.072,-1.872 Z"
           style="fill:#dd1c00;fill-opacity:1;fill-rule:nonzero;stroke:none"
           id="path84509"
           inkscape:connector-curvature="0" /><path
           d="M 599.443,-1.872 V 82.627 C 510.217,59.271 419.34,43.038 327.998,35.084 355.074,21.406 383.149,9.085 412.072,-1.872 Z"
           style="fill:none;stroke:#dd1c00;stroke-width:0.89600003;stroke-linecap:butt;stroke-linejoin:miter;stroke-miterlimit:4;stroke-dasharray:none;stroke-opacity:1"
           id="path84511"
           inkscape:connector-curvature="0" /><path
           d="M 599.443,158.542 C 545.084,175.843 493.64,198.201 446.246,225.449 407.713,160.826 368.251,97.396 327.998,35.084 419.34,43.038 510.217,59.271 599.443,82.627 Z"
           style="fill:#ed4100;fill-opacity:1;fill-rule:nonzero;stroke:none"
           id="path84513"
           inkscape:connector-curvature="0" /><path
           d="M 599.443,158.542 C 545.084,175.843 493.64,198.201 446.246,225.449 407.713,160.826 368.251,97.396 327.998,35.084 419.34,43.038 510.217,59.271 599.443,82.627 Z"
           style="fill:none;stroke:#ed4100;stroke-width:0.89600003;stroke-linecap:butt;stroke-linejoin:miter;stroke-miterlimit:4;stroke-dasharray:none;stroke-opacity:1"
           id="path84515"
           inkscape:connector-curvature="0" /><path
           d="m 315.264,258.719 c -4.551,41.658 -6.453,84.07 -5.805,126.877 -61.532,-31.783 -125.34,-59.895 -190.956,-83.981 63.287,-20.91 129.385,-35.088 196.761,-42.896"
           style="fill:#ff8d0b;fill-opacity:1;fill-rule:nonzero;stroke:none"
           id="path84517"
           inkscape:connector-curvature="0" /><path
           d="m 315.264,258.719 c -4.551,41.658 -6.453,84.07 -5.805,126.877 -61.532,-31.783 -125.34,-59.895 -190.956,-83.981 63.287,-20.91 129.385,-35.088 196.761,-42.896 z"
           style="fill:none;stroke:#ff8d0b;stroke-width:0.89600003;stroke-linecap:butt;stroke-linejoin:miter;stroke-miterlimit:4;stroke-dasharray:none;stroke-opacity:1"
           id="path84519"
           inkscape:connector-curvature="0" /><path
           d="m 118.503,301.615 c 65.616,24.086 129.424,52.198 190.956,83.981 -72.206,20.599 -140.841,50.535 -202.962,89.283 -1.319,-58.303 2.565,-116.445 12.006,-173.264"
           style="fill:#ffb32b;fill-opacity:1;fill-rule:nonzero;stroke:none"
           id="path84521"
           inkscape:connector-curvature="0" /><path
           d="m 118.503,301.615 c 65.616,24.086 129.424,52.198 190.956,83.981 -72.206,20.599 -140.841,50.535 -202.962,89.283 -1.319,-58.303 2.565,-116.445 12.006,-173.264 z"
           style="fill:none;stroke:#ffb32b;stroke-width:0.89600003;stroke-linecap:butt;stroke-linejoin:miter;stroke-miterlimit:4;stroke-dasharray:none;stroke-opacity:1"
           id="path84523"
           inkscape:connector-curvature="0" /><path
           d="M 309.459,385.596 C 292.673,461.342 286.951,540.283 291.368,619.067 231.57,568.495 169.889,520.4 106.497,474.879 168.618,436.131 237.253,406.195 309.459,385.596"
           style="fill:#fbbf5f;fill-opacity:1;fill-rule:nonzero;stroke:none"
           id="path84525"
           inkscape:connector-curvature="0" /><path
           d="M 309.459,385.596 C 292.673,461.342 286.951,540.283 291.368,619.067 231.57,568.495 169.889,520.4 106.497,474.879 168.618,436.131 237.253,406.195 309.459,385.596 Z"
           style="fill:none;stroke:#fbbf5f;stroke-width:0.89600003;stroke-linecap:butt;stroke-linejoin:miter;stroke-miterlimit:4;stroke-dasharray:none;stroke-opacity:1"
           id="path84527"
           inkscape:connector-curvature="0" /><path
           d="M 106.497,474.879 C 169.889,520.4 231.57,568.495 291.368,619.067 232.12,651.974 178.836,693.787 134.276,742.364 113.006,655.365 103.113,564.867 106.497,474.879"
           style="fill:#f0e29f;fill-opacity:1;fill-rule:nonzero;stroke:none"
           id="path84529"
           inkscape:connector-curvature="0" /><path
           d="M 106.497,474.879 C 169.889,520.4 231.57,568.495 291.368,619.067 232.12,651.974 178.836,693.787 134.276,742.364 113.006,655.365 103.113,564.867 106.497,474.879 Z"
           style="fill:none;stroke:#f0e29f;stroke-width:0.89600003;stroke-linecap:butt;stroke-linejoin:miter;stroke-miterlimit:4;stroke-dasharray:none;stroke-opacity:1"
           id="path84531"
           inkscape:connector-curvature="0" /><path
           d="m 291.368,619.067 c -25.046,62.703 -39.743,128.717 -44.612,194.339 -37.011,-24.595 -74.513,-48.285 -112.48,-71.042 44.56,-48.577 97.844,-90.39 157.092,-123.297"
           style="fill:#d4dfac;fill-opacity:1;fill-rule:nonzero;stroke:none"
           id="path84533"
           inkscape:connector-curvature="0" /><path
           d="m 291.368,619.067 c -25.046,62.703 -39.743,128.717 -44.612,194.339 -37.011,-24.595 -74.513,-48.285 -112.48,-71.042 44.56,-48.577 97.844,-90.39 157.092,-123.297 z"
           style="fill:none;stroke:#d4dfac;stroke-width:0.89600003;stroke-linecap:butt;stroke-linejoin:miter;stroke-miterlimit:4;stroke-dasharray:none;stroke-opacity:1"
           id="path84535"
           inkscape:connector-curvature="0" /><path
           d="m 315.264,258.719 c 68.375,19.365 135.047,43.465 199.415,71.715 -71.546,10.345 -140.705,28.707 -205.22,55.162 -0.648,-42.807 1.254,-85.219 5.805,-126.877"
           style="fill:#ff7709;fill-opacity:1;fill-rule:nonzero;stroke:none"
           id="path84537"
           inkscape:connector-curvature="0" /><path
           d="m 315.264,258.719 c 68.375,19.365 135.047,43.465 199.415,71.715 -71.546,10.345 -140.705,28.707 -205.22,55.162 -0.648,-42.807 1.254,-85.219 5.805,-126.877 z"
           style="fill:none;stroke:#ff7709;stroke-width:0.89600003;stroke-linecap:butt;stroke-linejoin:miter;stroke-miterlimit:4;stroke-dasharray:none;stroke-opacity:1"
           id="path84539"
           inkscape:connector-curvature="0" /><path
           d="m 446.246,225.449 c 23.255,34.555 46.032,69.574 68.433,104.985 -64.368,-28.25 -131.04,-52.35 -199.415,-71.715 42.296,-14.131 86.123,-25.211 130.982,-33.27"
           style="fill:#fa6800;fill-opacity:1;fill-rule:nonzero;stroke:none"
           id="path84541"
           inkscape:connector-curvature="0" /><path
           d="m 446.246,225.449 c 23.255,34.555 46.032,69.574 68.433,104.985 -64.368,-28.25 -131.04,-52.35 -199.415,-71.715 42.296,-14.131 86.123,-25.211 130.982,-33.27 z"
           style="fill:none;stroke:#fa6800;stroke-width:0.89600003;stroke-linecap:butt;stroke-linejoin:miter;stroke-miterlimit:4;stroke-dasharray:none;stroke-opacity:1"
           id="path84543"
           inkscape:connector-curvature="0" /><path
           d="m 291.368,619.067 c 37.693,27.863 74.574,56.946 110.617,87.16 -58.173,27.582 -110.859,63.997 -155.229,107.179 4.869,-65.622 19.566,-131.636 44.612,-194.339"
           style="fill:#d3ca99;fill-opacity:1;fill-rule:nonzero;stroke:none"
           id="path84545"
           inkscape:connector-curvature="0" /><path
           d="m 291.368,619.067 c 37.693,27.863 74.574,56.946 110.617,87.16 -58.173,27.582 -110.859,63.997 -155.229,107.179 4.869,-65.622 19.566,-131.636 44.612,-194.339 z"
           style="fill:none;stroke:#d3ca99;stroke-width:0.89600003;stroke-linecap:butt;stroke-linejoin:miter;stroke-miterlimit:4;stroke-dasharray:none;stroke-opacity:1"
           id="path84547"
           inkscape:connector-curvature="0" /><path
           d="m 599.443,283.897 c -29.643,13.705 -57.992,29.252 -84.764,46.537 -22.401,-35.411 -45.178,-70.43 -68.433,-104.985 51.349,5.399 102.519,13.817 153.197,24.956 z"
           style="fill:#f55e00;fill-opacity:1;fill-rule:nonzero;stroke:none"
           id="path84549"
           inkscape:connector-curvature="0" /><path
           d="m 599.443,283.897 c -29.643,13.705 -57.992,29.252 -84.764,46.537 -22.401,-35.411 -45.178,-70.43 -68.433,-104.985 51.349,5.399 102.519,13.817 153.197,24.956 z"
           style="fill:none;stroke:#f55e00;stroke-width:0.89600003;stroke-linecap:butt;stroke-linejoin:miter;stroke-miterlimit:4;stroke-dasharray:none;stroke-opacity:1"
           id="path84551"
           inkscape:connector-curvature="0" /><path
           d="M 599.443,250.405 C 548.765,239.266 497.595,230.848 446.246,225.449 493.64,198.201 545.084,175.843 599.443,158.542 Z"
           style="fill:#e94c00;fill-opacity:1;fill-rule:nonzero;stroke:none"
           id="path84553"
           inkscape:connector-curvature="0" /><path
           d="M 599.443,250.405 C 548.765,239.266 497.595,230.848 446.246,225.449 493.64,198.201 545.084,175.843 599.443,158.542 Z"
           style="fill:none;stroke:#e94c00;stroke-width:0.89600003;stroke-linecap:butt;stroke-linejoin:miter;stroke-miterlimit:4;stroke-dasharray:none;stroke-opacity:1"
           id="path84555"
           inkscape:connector-curvature="0" /><path
           d="m 401.985,706.227 c 17.267,44.322 36.255,88.194 56.896,131.446 -69.887,-17.486 -141.477,-25.939 -212.125,-24.267 44.37,-43.182 97.056,-79.597 155.229,-107.179"
           style="fill:#c2bb98;fill-opacity:1;fill-rule:nonzero;stroke:none"
           id="path84557"
           inkscape:connector-curvature="0" /><path
           d="m 401.985,706.227 c 17.267,44.322 36.255,88.194 56.896,131.446 -69.887,-17.486 -141.477,-25.939 -212.125,-24.267 44.37,-43.182 97.056,-79.597 155.229,-107.179 z"
           style="fill:none;stroke:#c2bb98;stroke-width:0.89600003;stroke-linecap:butt;stroke-linejoin:miter;stroke-miterlimit:4;stroke-dasharray:none;stroke-opacity:1"
           id="path84559"
           inkscape:connector-curvature="0" /><path
           d="m 276.701,841.405 c -9.98,-9.339 -19.962,-18.672 -29.945,-27.999 70.648,-1.672 142.238,6.781 212.125,24.267 -1.664,1.235 -3.318,2.479 -4.964,3.732 z"
           style="fill:#b7b9a9;fill-opacity:1;fill-rule:nonzero;stroke:none"
           id="path84561"
           inkscape:connector-curvature="0" /><path
           d="m 276.701,841.405 c -9.98,-9.339 -19.962,-18.672 -29.945,-27.999 70.648,-1.672 142.238,6.781 212.125,24.267 -1.664,1.235 -3.318,2.479 -4.964,3.732 z"
           style="fill:none;stroke:#b7b9a9;stroke-width:0.89600003;stroke-linecap:butt;stroke-linejoin:miter;stroke-miterlimit:4;stroke-dasharray:none;stroke-opacity:1"
           id="path84563"
           inkscape:connector-curvature="0" /><path
           d="m 309.459,385.596 c 63.045,48.982 123.393,101.198 180.629,156.457 -70.878,16.075 -138.229,41.939 -198.72,77.014 -4.417,-78.784 1.305,-157.725 18.091,-233.471"
           style="fill:#f5a268;fill-opacity:1;fill-rule:nonzero;stroke:none"
           id="path84565"
           inkscape:connector-curvature="0" /><path
           d="m 309.459,385.596 c 63.045,48.982 123.393,101.198 180.629,156.457 -70.878,16.075 -138.229,41.939 -198.72,77.014 -4.417,-78.784 1.305,-157.725 18.091,-233.471 z"
           style="fill:none;stroke:#f5a268;stroke-width:0.89600003;stroke-linecap:butt;stroke-linejoin:miter;stroke-miterlimit:4;stroke-dasharray:none;stroke-opacity:1"
           id="path84567"
           inkscape:connector-curvature="0" /><path
           d="m 490.088,542.053 c -38.401,49.981 -68.021,105.844 -88.103,164.174 -36.043,-30.214 -72.924,-59.297 -110.617,-87.16 60.491,-35.075 127.842,-60.939 198.72,-77.014"
           style="fill:#e0aa73;fill-opacity:1;fill-rule:nonzero;stroke:none"
           id="path84569"
           inkscape:connector-curvature="0" /><path
           d="m 490.088,542.053 c -38.401,49.981 -68.021,105.844 -88.103,164.174 -36.043,-30.214 -72.924,-59.297 -110.617,-87.16 60.491,-35.075 127.842,-60.939 198.72,-77.014 z"
           style="fill:none;stroke:#e0aa73;stroke-width:0.89600003;stroke-linecap:butt;stroke-linejoin:miter;stroke-miterlimit:4;stroke-dasharray:none;stroke-opacity:1"
           id="path84571"
           inkscape:connector-curvature="0" /><path
           d="M 514.679,330.434 C 498.267,398.232 490.22,469.494 490.088,542.053 432.852,486.794 372.504,434.578 309.459,385.596 c 64.515,-26.455 133.674,-44.817 205.22,-55.162"
           style="fill:#fc8131;fill-opacity:1;fill-rule:nonzero;stroke:none"
           id="path84573"
           inkscape:connector-curvature="0" /><path
           d="M 514.679,330.434 C 498.267,398.232 490.22,469.494 490.088,542.053 432.852,486.794 372.504,434.578 309.459,385.596 c 64.515,-26.455 133.674,-44.817 205.22,-55.162 z"
           style="fill:none;stroke:#fc8131;stroke-width:0.89600003;stroke-linecap:butt;stroke-linejoin:miter;stroke-miterlimit:4;stroke-dasharray:none;stroke-opacity:1"
           id="path84575"
           inkscape:connector-curvature="0" /><path
           d="m 599.443,337.941 c -28.239,-3.503 -56.518,-6.02 -84.764,-7.507 26.772,-17.285 55.121,-32.832 84.764,-46.537 z"
           style="fill:#f15700;fill-opacity:1;fill-rule:nonzero;stroke:none"
           id="path84577"
           inkscape:connector-curvature="0" /><path
           d="m 599.443,337.941 c -28.239,-3.503 -56.518,-6.02 -84.764,-7.507 26.772,-17.285 55.121,-32.832 84.764,-46.537 z"
           style="fill:none;stroke:#f15700;stroke-width:0.89600003;stroke-linecap:butt;stroke-linejoin:miter;stroke-miterlimit:4;stroke-dasharray:none;stroke-opacity:1"
           id="path84579"
           inkscape:connector-curvature="0" /><path
           d="m 490.088,542.053 c 26.387,54.753 53.408,109.916 81.125,165.447 -56.603,-6.335 -113.484,-6.957 -169.228,-1.273 20.082,-58.33 49.702,-114.193 88.103,-164.174"
           style="fill:#d58967;fill-opacity:1;fill-rule:nonzero;stroke:none"
           id="path84581"
           inkscape:connector-curvature="0" /><path
           d="m 490.088,542.053 c 26.387,54.753 53.408,109.916 81.125,165.447 -56.603,-6.335 -113.484,-6.957 -169.228,-1.273 20.082,-58.33 49.702,-114.193 88.103,-164.174 z"
           style="fill:none;stroke:#d58967;stroke-width:0.89600003;stroke-linecap:butt;stroke-linejoin:miter;stroke-miterlimit:4;stroke-dasharray:none;stroke-opacity:1"
           id="path84583"
           inkscape:connector-curvature="0" /><path
           d="m 599.443,526.603 c -28.623,-66.308 -56.89,-131.685 -84.764,-196.169 28.246,1.487 56.525,4.004 84.764,7.507 z"
           style="fill:#f25f24;fill-opacity:1;fill-rule:nonzero;stroke:none"
           id="path84585"
           inkscape:connector-curvature="0" /><path
           d="m 599.443,526.603 c -28.623,-66.308 -56.89,-131.685 -84.764,-196.169 28.246,1.487 56.525,4.004 84.764,7.507 z"
           style="fill:none;stroke:#f25f24;stroke-width:0.89600003;stroke-linecap:butt;stroke-linejoin:miter;stroke-miterlimit:4;stroke-dasharray:none;stroke-opacity:1"
           id="path84587"
           inkscape:connector-curvature="0" /><path
           d="m 599.443,556.682 c -36.231,-6.839 -72.761,-11.759 -109.355,-14.629 0.132,-72.559 8.179,-143.821 24.591,-211.619 27.874,64.484 56.141,129.861 84.764,196.169 z"
           style="fill:#f2704a;fill-opacity:1;fill-rule:nonzero;stroke:none"
           id="path84589"
           inkscape:connector-curvature="0" /><path
           d="m 599.443,556.682 c -36.231,-6.839 -72.761,-11.759 -109.355,-14.629 0.132,-72.559 8.179,-143.821 24.591,-211.619 27.874,64.484 56.141,129.861 84.764,196.169 z"
           style="fill:none;stroke:#f2704a;stroke-width:0.89600003;stroke-linecap:butt;stroke-linejoin:miter;stroke-miterlimit:4;stroke-dasharray:none;stroke-opacity:1"
           id="path84591"
           inkscape:connector-curvature="0" /><path
           d="M 599.443,596.119 C 586.8,632.163 577.396,669.512 571.213,707.5 543.496,651.969 516.475,596.806 490.088,542.053 c 36.594,2.87 73.124,7.79 109.355,14.629 z"
           style="fill:#db7255;fill-opacity:1;fill-rule:nonzero;stroke:none"
           id="path84593"
           inkscape:connector-curvature="0" /><path
           d="M 599.443,596.119 C 586.8,632.163 577.396,669.512 571.213,707.5 543.496,651.969 516.475,596.806 490.088,542.053 c 36.594,2.87 73.124,7.79 109.355,14.629 z"
           style="fill:none;stroke:#db7255;stroke-width:0.89600003;stroke-linecap:butt;stroke-linejoin:miter;stroke-miterlimit:4;stroke-dasharray:none;stroke-opacity:1"
           id="path84595"
           inkscape:connector-curvature="0" /><path
           d="m 571.213,707.5 c 3.199,40.929 8.766,82 16.705,122.889 -58.717,-46.221 -120.953,-87.799 -185.933,-124.162 55.744,-5.684 112.625,-5.062 169.228,1.273"
           style="fill:#c27d69;fill-opacity:1;fill-rule:nonzero;stroke:none"
           id="path84597"
           inkscape:connector-curvature="0" /><path
           d="m 571.213,707.5 c 3.199,40.929 8.766,82 16.705,122.889 -58.717,-46.221 -120.953,-87.799 -185.933,-124.162 55.744,-5.684 112.625,-5.062 169.228,1.273 z"
           style="fill:none;stroke:#c27d69;stroke-width:0.89600003;stroke-linecap:butt;stroke-linejoin:miter;stroke-miterlimit:4;stroke-dasharray:none;stroke-opacity:1"
           id="path84599"
           inkscape:connector-curvature="0" /><path
           d="m 401.985,706.227 c 64.98,36.363 127.216,77.941 185.933,124.162 -43.55,-1.677 -86.867,0.673 -129.037,7.284 -20.641,-43.252 -39.629,-87.124 -56.896,-131.446"
           style="fill:#bc8b77;fill-opacity:1;fill-rule:nonzero;stroke:none"
           id="path84601"
           inkscape:connector-curvature="0" /><path
           d="m 401.985,706.227 c 64.98,36.363 127.216,77.941 185.933,124.162 -43.55,-1.677 -86.867,0.673 -129.037,7.284 -20.641,-43.252 -39.629,-87.124 -56.896,-131.446 z"
           style="fill:none;stroke:#bc8b77;stroke-width:0.89600003;stroke-linecap:butt;stroke-linejoin:miter;stroke-miterlimit:4;stroke-dasharray:none;stroke-opacity:1"
           id="path84603"
           inkscape:connector-curvature="0" /><path
           d="m 541.628,841.405 c 15.18,-4.271 30.628,-7.95 46.29,-11.016 -8.837,3.45 -17.534,7.126 -26.084,11.016 z"
           style="fill:#ac9ea3;fill-opacity:1;fill-rule:nonzero;stroke:none"
           id="path84605"
           inkscape:connector-curvature="0" /><path
           d="m 541.628,841.405 c 15.18,-4.271 30.628,-7.95 46.29,-11.016 -8.837,3.45 -17.534,7.126 -26.084,11.016 z"
           style="fill:none;stroke:#ac9ea3;stroke-width:0.89600003;stroke-linecap:butt;stroke-linejoin:miter;stroke-miterlimit:4;stroke-dasharray:none;stroke-opacity:1"
           id="path84607"
           inkscape:connector-curvature="0" /><path
           d="m 453.917,841.405 c 1.646,-1.253 3.3,-2.497 4.964,-3.732 42.17,-6.611 85.487,-8.961 129.037,-7.284 -15.662,3.066 -31.11,6.745 -46.29,11.016 z"
           style="fill:#b18f89;fill-opacity:1;fill-rule:nonzero;stroke:none"
           id="path84609"
           inkscape:connector-curvature="0" /><path
           d="m 453.917,841.405 c 1.646,-1.253 3.3,-2.497 4.964,-3.732 42.17,-6.611 85.487,-8.961 129.037,-7.284 -15.662,3.066 -31.11,6.745 -46.29,11.016 z"
           style="fill:none;stroke:#b18f89;stroke-width:0.89600003;stroke-linecap:butt;stroke-linejoin:miter;stroke-miterlimit:4;stroke-dasharray:none;stroke-opacity:1"
           id="path84611"
           inkscape:connector-curvature="0" /><path
           d="m 599.443,818.571 c -3.922,3.883 -7.765,7.823 -11.525,11.818 -7.939,-40.889 -13.506,-81.96 -16.705,-122.889 9.419,0.832 18.831,1.824 28.23,2.972 z"
           style="fill:#be5155;fill-opacity:1;fill-rule:nonzero;stroke:none"
           id="path84613"
           inkscape:connector-curvature="0" /><path
           d="m 599.443,818.571 c -3.922,3.883 -7.765,7.823 -11.525,11.818 -7.939,-40.889 -13.506,-81.96 -16.705,-122.889 9.419,0.832 18.831,1.824 28.23,2.972 z"
           style="fill:none;stroke:#be5155;stroke-width:0.89600003;stroke-linecap:butt;stroke-linejoin:miter;stroke-miterlimit:4;stroke-dasharray:none;stroke-opacity:1"
           id="path84615"
           inkscape:connector-curvature="0" /><path
           d="m 599.443,710.472 c -9.399,-1.148 -18.811,-2.14 -28.23,-2.972 6.183,-37.988 15.587,-75.337 28.23,-111.381 z"
           style="fill:#ca5d51;fill-opacity:1;fill-rule:nonzero;stroke:none"
           id="path84617"
           inkscape:connector-curvature="0" /><path
           d="m 599.443,710.472 c -9.399,-1.148 -18.811,-2.14 -28.23,-2.972 6.183,-37.988 15.587,-75.337 28.23,-111.381 z"
           style="fill:none;stroke:#ca5d51;stroke-width:0.89600003;stroke-linecap:butt;stroke-linejoin:miter;stroke-miterlimit:4;stroke-dasharray:none;stroke-opacity:1"
           id="path84619"
           inkscape:connector-curvature="0" /><path
           d="m 599.443,831.585 c -3.839,-0.429 -7.681,-0.828 -11.525,-1.196 3.76,-3.995 7.603,-7.935 11.525,-11.818 z"
           style="fill:#b0354b;fill-opacity:1;fill-rule:nonzero;stroke:none"
           id="path84621"
           inkscape:connector-curvature="0" /><path
           d="m 599.443,831.585 c -3.839,-0.429 -7.681,-0.828 -11.525,-1.196 3.76,-3.995 7.603,-7.935 11.525,-11.818 z"
           style="fill:none;stroke:#b0354b;stroke-width:0.89600003;stroke-linecap:butt;stroke-linejoin:miter;stroke-miterlimit:4;stroke-dasharray:none;stroke-opacity:1"
           id="path84623"
           inkscape:connector-curvature="0" /><path
           d="m 599.443,841.405 h -37.609 c 8.55,-3.89 17.247,-7.566 26.084,-11.016 3.844,0.368 7.686,0.767 11.525,1.196 z"
           style="fill:#ae646f;fill-opacity:1;fill-rule:nonzero;stroke:none"
           id="path84625"
           inkscape:connector-curvature="0" /><path
           d="m 599.443,841.405 h -37.609 c 8.55,-3.89 17.247,-7.566 26.084,-11.016 3.844,0.368 7.686,0.767 11.525,1.196 z"
           style="fill:none;stroke:#ae646f;stroke-width:0.89600003;stroke-linecap:butt;stroke-linejoin:miter;stroke-miterlimit:4;stroke-dasharray:none;stroke-opacity:1"
           id="path84627"
           inkscape:connector-curvature="0" /></g></g></g></svg>